<svg xmlns="http://www.w3.org/2000/svg" viewBox="0 0 1200 750" font-family="system-ui, -apple-system, sans-serif">
  <rect width="1200" height="750" fill="#f1f5f9"/>
  <rect x="40" y="40" width="1120" height="670" rx="12" fill="#ffffff" stroke="#e2e8f0" stroke-width="2"/>
  <rect x="40" y="40" width="1120" height="44" rx="12" fill="#f8fafc"/>
  <rect x="40" y="72" width="1120" height="12" fill="#f8fafc"/>
  <circle cx="72" cy="62" r="6" fill="#ef4444"/>
  <circle cx="92" cy="62" r="6" fill="#f59e0b"/>
  <circle cx="112" cy="62" r="6" fill="#10b981"/>
  <text x="600" y="66" text-anchor="middle" fill="#64748b" font-size="13">PrestaFlow — psflowdemo</text>
  <rect x="1030" y="52" width="118" height="24" rx="12" fill="#fef3c7" stroke="#f59e0b"/>
  <text x="1089" y="68" text-anchor="middle" fill="#92400e" font-size="11" font-weight="600" letter-spacing="0.5">APERÇU · MOCKUP</text>

  <!-- sidebar -->
  <rect x="40" y="84" width="260" height="626" fill="#f8fafc"/>
  <line x1="300" y1="84" x2="300" y2="710" stroke="#e2e8f0"/>
  <text x="64" y="120" fill="#64748b" font-size="11" font-weight="700" letter-spacing="1">PROJETS</text>
  <!-- active project -->
  <rect x="52" y="132" width="236" height="40" rx="6" fill="#ecfdf5"/>
  <rect x="52" y="132" width="3" height="40" fill="#059669"/>
  <text x="68" y="150" fill="#0f172a" font-size="13" font-weight="600">psflowdemo</text>
  <text x="68" y="164" fill="#64748b" font-size="11">3 suites · 12 tests</text>
  <!-- other project -->
  <rect x="52" y="180" width="236" height="40" rx="6" fill="transparent"/>
  <text x="68" y="198" fill="#334155" font-size="13">psflowextra</text>
  <text x="68" y="212" fill="#94a3b8" font-size="11">1 suite · 4 tests</text>

  <rect x="52" y="240" width="236" height="36" rx="6" fill="transparent" stroke="#cbd5e1" stroke-dasharray="4 4"/>
  <text x="170" y="263" text-anchor="middle" fill="#64748b" font-size="12">+ Add project</text>

  <!-- main area -->
  <text x="330" y="130" fill="#0f172a" font-size="24" font-weight="700">psflowdemo</text>
  <text x="330" y="152" fill="#64748b" font-size="13">/Users/jd/dev/psflowdemo</text>

  <!-- suite card 1 -->
  <rect x="330" y="190" width="800" height="90" rx="10" fill="#ffffff" stroke="#e2e8f0"/>
  <circle cx="358" cy="235" r="8" fill="#10b981"/>
  <text x="380" y="225" fill="#0f172a" font-size="16" font-weight="600">Checkout</text>
  <text x="380" y="245" fill="#64748b" font-size="12">tests/prestaflow/Suites/Checkout.php</text>
  <text x="380" y="262" fill="#94a3b8" font-size="12">Dernier run il y a 4 min · 6 tests passés</text>
  <rect x="1050" y="220" width="60" height="30" rx="6" fill="#059669"/>
  <text x="1080" y="240" text-anchor="middle" fill="#ffffff" font-size="12" font-weight="600">Run</text>

  <!-- suite card 2 -->
  <rect x="330" y="298" width="800" height="90" rx="10" fill="#ffffff" stroke="#e2e8f0"/>
  <circle cx="358" cy="343" r="8" fill="#ef4444"/>
  <text x="380" y="333" fill="#0f172a" font-size="16" font-weight="600">DisplayHome</text>
  <text x="380" y="353" fill="#64748b" font-size="12">tests/prestaflow/Suites/DisplayHome.php</text>
  <text x="380" y="370" fill="#ef4444" font-size="12">Dernier run il y a 12 min · 2 tests, 1 échec</text>
  <rect x="1050" y="328" width="60" height="30" rx="6" fill="#059669"/>
  <text x="1080" y="348" text-anchor="middle" fill="#ffffff" font-size="12" font-weight="600">Run</text>

  <!-- suite card 3 -->
  <rect x="330" y="406" width="800" height="90" rx="10" fill="#ffffff" stroke="#e2e8f0"/>
  <circle cx="358" cy="451" r="8" fill="#94a3b8"/>
  <text x="380" y="441" fill="#0f172a" font-size="16" font-weight="600">UpdateTitle</text>
  <text x="380" y="461" fill="#64748b" font-size="12">tests/prestaflow/Suites/UpdateTitle.php</text>
  <text x="380" y="478" fill="#94a3b8" font-size="12">Jamais joué · 4 tests</text>
  <rect x="1050" y="436" width="60" height="30" rx="6" fill="#059669"/>
  <text x="1080" y="456" text-anchor="middle" fill="#ffffff" font-size="12" font-weight="600">Run</text>
</svg>
